<?xml version="1.0" encoding="iso-8859-1"?>
<!-- Generator: Adobe Illustrator 16.0.0, SVG Export Plug-In . SVG Version: 6.00 Build 0)  -->
<!DOCTYPE svg PUBLIC "-//W3C//DTD SVG 1.1//EN" "http://www.w3.org/Graphics/SVG/1.1/DTD/svg11.dtd">
<svg version="1.1" id="Capa_1" xmlns="http://www.w3.org/2000/svg" xmlns:xlink="http://www.w3.org/1999/xlink" x="0px" y="0px"
	 width="22.734px" height="22.734px" viewBox="0 0 22.734 22.734" style="enable-background:new 0 0 22.734 22.734;"
	 xml:space="preserve">
<g>
	<g>
		<path d="M8.692,0.867H1.721C0.771,0.867,0,1.638,0,2.588v6.103c0,0.951,0.771,1.721,1.721,1.721h6.971
			c0.951,0,1.722-0.771,1.722-1.721V2.588C10.413,1.638,9.643,0.867,8.692,0.867z"/>
		<path d="M21.014,0.867h-6.971c-0.951,0-1.723,0.771-1.723,1.721v6.103c0,0.951,0.771,1.721,1.723,1.721h6.971
			c0.951,0,1.721-0.771,1.721-1.721V2.588C22.734,1.638,21.965,0.867,21.014,0.867z"/>
		<path d="M8.692,12.322H1.721c-0.95,0-1.721,0.77-1.721,1.721v6.104c0,0.948,0.771,1.72,1.721,1.72h6.971
			c0.951,0,1.722-0.771,1.722-1.721v-6.104C10.413,13.091,9.642,12.322,8.692,12.322z"/>
		<path d="M21.014,12.322h-6.971c-0.951,0-1.723,0.771-1.723,1.721v6.104c0,0.95,0.771,1.721,1.723,1.721h6.971
			c0.951,0,1.721-0.771,1.721-1.721v-6.104C22.734,13.091,21.964,12.322,21.014,12.322z"/>
	</g>
</g>
<g>
</g>
<g>
</g>
<g>
</g>
<g>
</g>
<g>
</g>
<g>
</g>
<g>
</g>
<g>
</g>
<g>
</g>
<g>
</g>
<g>
</g>
<g>
</g>
<g>
</g>
<g>
</g>
<g>
</g>
</svg>
