<?xml version="1.0" encoding="iso-8859-1"?>
<!-- Generator: Adobe Illustrator 16.0.0, SVG Export Plug-In . SVG Version: 6.00 Build 0)  -->
<!DOCTYPE svg PUBLIC "-//W3C//DTD SVG 1.1//EN" "http://www.w3.org/Graphics/SVG/1.1/DTD/svg11.dtd">
<svg version="1.1" id="Capa_1" xmlns="http://www.w3.org/2000/svg" xmlns:xlink="http://www.w3.org/1999/xlink" x="0px" y="0px"
	 width="31.174px" height="31.174px" viewBox="0 0 31.174 31.174" style="enable-background:new 0 0 31.174 31.174;"
	 xml:space="preserve">
<g>
	<g>
		<path d="M29.334,1.954l-0.106-0.108C28.033,0.653,26.453,0,24.772,0c-1.682,0-3.262,0.653-4.446,1.839l-5.955,5.954
			c-1.266,1.265-1.908,3.005-1.823,4.752c-0.107-0.005-0.214-0.008-0.321-0.008c-1.677,0-3.251,0.65-4.432,1.832l-5.954,5.954
			c-1.187,1.186-1.84,2.766-1.84,4.448s0.653,3.263,1.84,4.447l0.108,0.109c1.193,1.191,2.773,1.846,4.454,1.846
			c1.681,0,3.261-0.652,4.447-1.839l5.954-5.955c1.266-1.266,1.906-3.006,1.822-4.752c0.105,0.005,0.213,0.008,0.318,0.008
			c1.68,0,3.252-0.649,4.436-1.831l5.953-5.955c1.188-1.186,1.84-2.766,1.84-4.447C31.173,4.722,30.521,3.141,29.334,1.954z
			 M27.919,9.436l-5.953,5.955c-0.834,0.832-1.926,1.245-3.021,1.245c-0.506,0-1.012-0.089-1.492-0.265l-1.082,1.08
			c0.559,1.521,0.238,3.295-0.98,4.515L9.437,27.92c-0.836,0.836-1.935,1.254-3.034,1.254c-1.099,0-2.197-0.418-3.034-1.254
			l-0.114-0.113c-1.673-1.675-1.673-4.396,0-6.068l5.953-5.953c0.833-0.833,1.925-1.246,3.018-1.246
			c0.507,0,1.014,0.089,1.496,0.266l1.081-1.082c-0.558-1.521-0.238-3.295,0.981-4.514l5.953-5.953C22.574,2.418,23.673,2,24.772,2
			c1.099,0,2.195,0.418,3.033,1.254l0.113,0.115C29.591,5.041,29.591,7.764,27.919,9.436z"/>
		<path d="M9.956,21.218c-0.565-0.563-0.687-1.407-0.374-2.099l-4.175,4.175c-0.653,0.649-0.653,1.717,0,2.37l0.103,0.104
			c0.327,0.325,0.756,0.488,1.186,0.488c0.43,0,0.858-0.163,1.185-0.488l4.175-4.177c-0.248,0.112-0.516,0.169-0.783,0.169
			C10.795,21.76,10.318,21.58,9.956,21.218z"/>
		<path d="M25.666,5.406c-0.328-0.326-0.756-0.49-1.187-0.49c-0.432,0-0.858,0.164-1.186,0.49l-4.135,4.135
			c0.248-0.112,0.516-0.168,0.781-0.168c0.479,0,0.955,0.18,1.315,0.542c0.565,0.565,0.688,1.407,0.375,2.098l4.136-4.134
			c0.651-0.652,0.651-1.716,0-2.369L25.666,5.406z"/>
	</g>
</g>
<g>
</g>
<g>
</g>
<g>
</g>
<g>
</g>
<g>
</g>
<g>
</g>
<g>
</g>
<g>
</g>
<g>
</g>
<g>
</g>
<g>
</g>
<g>
</g>
<g>
</g>
<g>
</g>
<g>
</g>
</svg>
