<?xml version="1.0" encoding="iso-8859-1"?>
<!-- Generator: Adobe Illustrator 18.1.1, SVG Export Plug-In . SVG Version: 6.00 Build 0)  -->
<svg version="1.1" id="Capa_1" xmlns="http://www.w3.org/2000/svg" xmlns:xlink="http://www.w3.org/1999/xlink" x="0px" y="0px"
	 viewBox="0 0 30.589 30.589" style="enable-background:new 0 0 30.589 30.589;" xml:space="preserve">
<g>
	<path style="fill:#010002;" d="M29.42,5.072l-0.78-0.779c-0.754-0.756-1.763-1.173-2.836-1.173c-1.074,0-2.082,0.417-2.838,1.174
		L11.03,16.229l-3.408-3.406c-0.754-0.757-1.763-1.174-2.836-1.174c-1.075,0-2.083,0.418-2.839,1.176l-0.774,0.774
		c-1.564,1.565-1.564,4.11-0.002,5.674l7.018,7.023c0.757,0.758,1.765,1.174,2.838,1.174c1.074,0,2.082-0.417,2.838-1.175
		l15.553-15.551C30.979,9.179,30.979,6.635,29.42,5.072z M28.138,9.462L12.582,25.016c-0.428,0.428-0.991,0.642-1.556,0.642
		c-0.563,0-1.128-0.214-1.556-0.642l-7.018-7.023c-0.854-0.854-0.854-2.255,0-3.11l0.777-0.777c0.427-0.428,0.992-0.644,1.556-0.644
		s1.127,0.216,1.555,0.644l4.689,4.688l13.219-13.22c0.428-0.427,0.991-0.642,1.556-0.642c0.563,0,1.127,0.215,1.555,0.643
		l0.779,0.777C28.991,7.206,28.991,8.607,28.138,9.462z"/>
</g>
<g>
</g>
<g>
</g>
<g>
</g>
<g>
</g>
<g>
</g>
<g>
</g>
<g>
</g>
<g>
</g>
<g>
</g>
<g>
</g>
<g>
</g>
<g>
</g>
<g>
</g>
<g>
</g>
<g>
</g>
</svg>
