<?xml version="1.0" encoding="iso-8859-1"?>
<!-- Generator: Adobe Illustrator 18.1.1, SVG Export Plug-In . SVG Version: 6.00 Build 0)  -->
<svg version="1.1" id="Capa_1" xmlns="http://www.w3.org/2000/svg" xmlns:xlink="http://www.w3.org/1999/xlink" x="0px" y="0px"
	 viewBox="0 0 31.816 31.816" style="enable-background:new 0 0 31.816 31.816;" xml:space="preserve">
<g>
	<path style="fill:#949DAE;" d="M28.741,7.622c-0.179-1.479-1.446-2.629-2.977-2.629H15.45c-1.966,0-2.908,1.273-3.903,2.622H3.298
		C1.479,7.615,0,9.096,0,10.916v12.613c0,1.816,1.479,3.294,3.298,3.294h25.229c1.813,0,3.289-1.478,3.289-3.294V10.916
		C31.816,9.168,30.455,7.733,28.741,7.622z M29.817,23.529c0,0.714-0.579,1.294-1.29,1.294H3.298C2.583,24.823,2,24.243,2,23.529
		V10.916c0-0.705,0.596-1.301,1.298-1.301h9.252l0.604-0.81c0.952-1.289,1.376-1.812,2.296-1.812h10.314
		c0.551,0,0.999,0.444,0.999,0.99v1.632h1.764c0.711,0,1.29,0.584,1.29,1.301C29.817,10.916,29.817,23.529,29.817,23.529z"/>
</g>
<g>
</g>
<g>
</g>
<g>
</g>
<g>
</g>
<g>
</g>
<g>
</g>
<g>
</g>
<g>
</g>
<g>
</g>
<g>
</g>
<g>
</g>
<g>
</g>
<g>
</g>
<g>
</g>
<g>
</g>
</svg>
