<?xml version="1.0" encoding="iso-8859-1"?>
<!-- Generator: Adobe Illustrator 18.1.1, SVG Export Plug-In . SVG Version: 6.00 Build 0)  -->
<svg version="1.1" id="Capa_1" xmlns="http://www.w3.org/2000/svg" xmlns:xlink="http://www.w3.org/1999/xlink" x="0px" y="0px"
	 viewBox="0 0 30.018 30.018" style="enable-background:new 0 0 30.018 30.018;" xml:space="preserve">
<g>
	<path style="fill:#010002;" d="M25.713,0h-6.198h-9.082H4.234c-0.64,0-1.296,0.765-1.296,1.404v27.177
		c0,0.642,0.656,1.437,1.296,1.437h6.199h9.081h6.198c0.641,0,1.367-0.795,1.367-1.437V1.404C27.081,0.765,26.353,0,25.713,0z
		 M15.147,28.548c-0.73,0-1.323-0.594-1.323-1.323s0.593-1.322,1.323-1.322c0.729,0,1.322,0.594,1.322,1.322
		C16.469,27.954,15.876,28.548,15.147,28.548z M23.75,23.26H6.064l0.07-19.769h17.615V23.26H23.75z"/>
</g>
<g>
</g>
<g>
</g>
<g>
</g>
<g>
</g>
<g>
</g>
<g>
</g>
<g>
</g>
<g>
</g>
<g>
</g>
<g>
</g>
<g>
</g>
<g>
</g>
<g>
</g>
<g>
</g>
<g>
</g>
</svg>
