<?xml version="1.0" encoding="iso-8859-1"?>
<!-- Generator: Adobe Illustrator 16.0.0, SVG Export Plug-In . SVG Version: 6.00 Build 0)  -->
<!DOCTYPE svg PUBLIC "-//W3C//DTD SVG 1.1//EN" "http://www.w3.org/Graphics/SVG/1.1/DTD/svg11.dtd">
<svg version="1.1" id="Capa_1" xmlns="http://www.w3.org/2000/svg" xmlns:xlink="http://www.w3.org/1999/xlink" x="0px" y="0px"
	 width="32.018px" height="32.018px" viewBox="0 0 32.018 32.018" style="enable-background:new 0 0 32.018 32.018;"
	 xml:space="preserve">
<g>
	<g>
		<path d="M26.713,0H5.233C4.076,0,2.938,1.19,2.938,2.404v27.177c0,1.104,1.023,2.437,2.296,2.437h21.479
			c1.174,0,2.367-1.229,2.367-2.437V2.404C29.08,1.214,27.886,0,26.713,0z M26.691,30.016L5.273,30.02
			c-0.125-0.039-0.329-0.306-0.336-0.438V2.406C4.945,2.279,5.144,2.03,5.233,2L26.69,1.998c0.134,0.029,0.37,0.283,0.39,0.406
			l0.002,27.167C27.062,29.708,26.83,29.973,26.691,30.016z"/>
		<path d="M6.928,4.371l-0.072,20.01h18.098V4.371H6.928z M23.752,23.26H8.068L8.13,5.49h15.62v17.77H23.752z"/>
	</g>
</g>
<g>
</g>
<g>
</g>
<g>
</g>
<g>
</g>
<g>
</g>
<g>
</g>
<g>
</g>
<g>
</g>
<g>
</g>
<g>
</g>
<g>
</g>
<g>
</g>
<g>
</g>
<g>
</g>
<g>
</g>
</svg>
