<?xml version="1.0" encoding="iso-8859-1"?>
<!-- Generator: Adobe Illustrator 18.1.1, SVG Export Plug-In . SVG Version: 6.00 Build 0)  -->
<svg version="1.1" id="Capa_1" xmlns="http://www.w3.org/2000/svg" xmlns:xlink="http://www.w3.org/1999/xlink" x="0px" y="0px"
	 viewBox="0 0 29.498 29.498" style="enable-background:new 0 0 29.498 29.498;" xml:space="preserve">
<g>
	<g>
		<path style="fill:#949DAE;" d="M28.349,18.389c-0.165-0.604-0.509-1.113-0.981-1.459c-0.042-0.144-0.083-0.429-0.015-0.761
			l0.037-0.177V15.81V14.8c0-1.247-0.006-1.277-0.048-1.472c-0.076-0.354-0.035-0.653,0.007-0.803
			c0.477-0.346,0.828-0.861,0.996-1.476c0.261-0.956,0.076-2.091-0.508-3.114l-0.591-1.032c-0.746-1.307-1.965-2.119-3.182-2.119
			c-0.378,0-0.75,0.081-1.085,0.235c-0.198-0.025-0.554-0.15-0.855-0.389l-0.103-0.082l-0.114-0.065L20.05,3.416L19.954,3.36
			l-0.105-0.044c-0.376-0.154-0.658-0.41-0.768-0.556C18.952,1.172,17.383,0,15.33,0h-1.156c-2.043,0-3.608,1.154-3.749,2.721
			c-0.114,0.141-0.392,0.383-0.758,0.529l-0.1,0.039L9.473,3.341L7.529,4.406L7.397,4.479L7.279,4.573
			C6.97,4.82,6.63,4.944,6.45,4.977c-0.314-0.139-0.66-0.21-1.011-0.21c-1.198,0-2.411,0.819-3.165,2.139l-0.59,1.032
			c-0.412,0.72-0.642,1.521-0.644,2.258c-0.003,0.952,0.362,1.756,1.013,2.256c0.034,0.155,0.061,0.448-0.016,0.786
			c-0.038,0.168-0.062,0.28-0.062,1.563c0,1.148,0,1.148,0.015,1.262l0.009,0.073l0.017,0.073c0.073,0.346,0.045,0.643,0.011,0.802
			c-0.645,0.501-1.003,1.303-0.993,2.257c0.008,0.729,0.238,1.523,0.648,2.242l0.589,1.031c0.761,1.331,1.967,2.159,3.15,2.159
			c0.324,0,0.645-0.064,0.938-0.187c0.167,0.038,0.492,0.156,0.813,0.416l0.11,0.088l0.124,0.07l2.045,1.156L9.553,26.3l0.107,0.043
			c0.364,0.147,0.646,0.381,0.766,0.521c0.164,1.52,1.719,2.634,3.745,2.634h1.155c2.037,0,3.598-1.134,3.747-2.675
			c0.117-0.145,0.401-0.393,0.774-0.549l0.111-0.047l0.105-0.062l1.96-1.159l0.105-0.062l0.097-0.075
			c0.309-0.246,0.651-0.371,0.832-0.402c0.313,0.138,0.662,0.212,1.016,0.212c1.199,0,2.412-0.82,3.166-2.139l0.59-1.032
			C28.421,20.48,28.609,19.342,28.349,18.389z M26.308,20.635l-0.59,1.032c-0.438,0.765-1.104,1.251-1.639,1.251
			c-0.133,0-0.258-0.029-0.369-0.094c-0.15-0.086-0.346-0.127-0.566-0.127c-0.596,0-1.383,0.295-2.01,0.796l-1.96,1.157
			c-1.016,0.425-1.846,1.291-1.846,1.929s-0.898,1.159-1.998,1.159h-1.156c-1.1,0-1.998-0.514-1.998-1.141s-0.834-1.477-1.854-1.888
			l-2.046-1.157c-0.636-0.511-1.425-0.814-2.006-0.814c-0.202,0-0.379,0.037-0.516,0.115c-0.101,0.057-0.214,0.084-0.333,0.084
			c-0.518,0-1.179-0.498-1.62-1.271L3.21,20.634c-0.545-0.954-0.556-1.983-0.024-2.286c0.532-0.305,0.78-1.432,0.551-2.506
			c0,0,0-0.003,0-1.042c0-1.088,0.021-1.18,0.021-1.18c0.238-1.072-0.01-2.203-0.552-2.513C2.665,10.8,2.668,9.765,3.214,8.812
			L3.803,7.78c0.438-0.766,1.103-1.251,1.636-1.251c0.131,0,0.255,0.029,0.365,0.092c0.15,0.086,0.344,0.126,0.564,0.126
			c0.596,0,1.38-0.296,2.007-0.795l1.944-1.065c1.021-0.407,1.856-1.277,1.856-1.933s0.898-1.192,1.998-1.192h1.156V1.761
			c1.1,0,1.998,0.545,1.998,1.211c0,0.667,0.832,1.554,1.849,1.973l1.858,1.068c0.618,0.489,1.401,0.775,2.012,0.775
			c0.24,0,0.454-0.045,0.62-0.139c0.122-0.069,0.259-0.102,0.403-0.102c0.551,0,1.221,0.476,1.653,1.231l0.59,1.032
			c0.544,0.953,0.518,2.004-0.062,2.334c-0.577,0.331-0.859,1.48-0.627,2.554c0,0,0.01,0.042,0.01,1.103c0,1.012,0,1.012,0,1.012
			c-0.218,1.049,0.068,2.174,0.636,2.498C26.836,18.635,26.853,19.68,26.308,20.635z"/>
		<path style="fill:#949DAE;" d="M14.644,7.611c-3.913,0-7.084,3.173-7.084,7.085c0,3.914,3.171,7.085,7.084,7.085
			s7.085-3.172,7.085-7.085C21.729,10.784,18.557,7.611,14.644,7.611z M14.644,20.02c-2.936,0-5.323-2.388-5.323-5.323
			s2.388-5.323,5.323-5.323s5.324,2.388,5.324,5.323S17.58,20.02,14.644,20.02z"/>
		<path style="fill:#949DAE;" d="M14.716,9.908c-2.602,0-4.718,2.116-4.718,4.718c0,2.601,2.116,4.716,4.718,4.716
			c2.601,0,4.717-2.115,4.717-4.716C19.433,12.024,17.317,9.908,14.716,9.908z M14.716,17.581c-1.633,0-2.956-1.323-2.956-2.955
			s1.323-2.956,2.956-2.956c1.632,0,2.956,1.324,2.956,2.956S16.348,17.581,14.716,17.581z"/>
	</g>
</g>
<g>
</g>
<g>
</g>
<g>
</g>
<g>
</g>
<g>
</g>
<g>
</g>
<g>
</g>
<g>
</g>
<g>
</g>
<g>
</g>
<g>
</g>
<g>
</g>
<g>
</g>
<g>
</g>
<g>
</g>
</svg>
