<?xml version="1.0" encoding="iso-8859-1"?>
<!-- Generator: Adobe Illustrator 18.1.1, SVG Export Plug-In . SVG Version: 6.00 Build 0)  -->
<svg version="1.1" id="Capa_1" xmlns="http://www.w3.org/2000/svg" xmlns:xlink="http://www.w3.org/1999/xlink" x="0px" y="0px"
	 viewBox="0 0 28.865 28.865" style="enable-background:new 0 0 28.865 28.865;" xml:space="preserve">
<g>
	<path style="fill:#010002;" d="M24.491,12.533c-0.494-0.078-0.934-0.147-1.309-0.209c-0.603-0.097-1.059-0.168-1.201-0.184
		c-0.072-0.009-0.169-0.014-0.243-0.014c-0.468,0-0.898,0.151-1.253,0.408c-0.238-0.216-0.513-0.402-0.834-0.542L19.6,11.971
		c-0.559-0.24-0.921-0.403-1.154-0.512c-0.372-0.747-1.015-1.946-1.638-2.698c-1.788-2.16-3.276-3.35-3.835-3.76
		c-0.087-0.064-0.197-0.137-0.335-0.222c-0.243-0.147-0.65-0.397-1.413-1.192c-0.221-0.231-0.373-0.617-0.535-0.902
		c-0.331-0.586-1.021-1.949-2.562-1.949c-0.011,0-0.04,0-0.051,0c-0.352,0-0.601,0.193-0.766,0.244
		c-0.81,0.246-1.877,1.159-2.373,2.476C4.586,4.392,4.397,5.912,5.502,7.691c0.082,0.13,0.663,1.038,1.663,2.019
		c-0.173,0.029-0.363,0.058-0.56,0.058c-0.049,0-0.099,0.002-0.148-0.001C6.021,9.742,5.244,9.615,4.993,9.565L4.95,9.556
		C4.715,9.502,4.226,9.389,3.646,9.389c-0.749,0-1.428,0.183-2.018,0.543c-0.963,0.588-1.487,1.71-1.604,3.43
		c-0.209,3.082,0.907,8.573,4.045,11.133c1.679,1.369,5.1,1.477,6.107,1.477c0.922,0,2.275-0.072,3.486-0.419
		c0.038-0.011,0.073-0.022,0.11-0.035c0.398-0.138,0.946-0.271,1.152-0.282c0.265,0.028,0.532,0.043,0.793,0.043
		c0.136,0,0.258-0.006,0.377-0.013c0.183,1.196,1.16,1.968,2.059,2.291c0.021,0.008,0.041,0.015,0.062,0.021
		c0.173,0.057,1.737,0.55,3.301,0.55c0.605,0,1.159-0.074,1.646-0.223c0.757-0.202,3.282-1.195,4.769-5.661
		c0.401-1.205,0.693-2.471,0.823-3.562c0.06-0.505,0.097-0.978,0.108-1.399C28.934,14.806,27.3,13.032,24.491,12.533z
		 M16.617,23.181c0,0-0.33,0.096-0.898,0.096c-0.183,0-0.389-0.01-0.616-0.035c-0.05-0.006-0.104-0.008-0.16-0.008
		c-0.7,0-1.83,0.396-1.83,0.396c-0.813,0.231-1.863,0.342-2.937,0.342c-1.982,0-4.042-0.373-4.843-1.025
		c-3.271-2.67-4.083-10.44-2.662-11.308c0.312-0.191,0.659-0.25,0.975-0.25c0.429,0,0.8,0.106,0.958,0.14
		c0.276,0.056,1.166,0.206,1.739,0.238c0.088,0.005,0.175,0.007,0.261,0.007c1.29,0,2.311-0.521,2.311-0.521
		c1.788-1.064,0.165-2.487,0.165-2.487c-1.189-1.014-1.879-2.1-1.879-2.1c-1.373-2.211,0.293-3.65,0.663-3.762
		c0.135-0.043,0.158-0.168,0.213-0.168c0.005,0,0.012,0,0.018,0c0.692,0,0.761,1.15,1.688,2.117c1.177,1.23,1.754,1.514,2.005,1.699
		c0.396,0.292,1.765,1.382,3.48,3.455c0.741,0.895,1.658,2.888,1.658,2.888c0.166,0.166,1.675,0.816,1.934,0.928
		c0.798,0.345,0.767,1.409,0.767,1.409c0.047,3.156-1.733,6.605-2.064,7.213C17.23,23.053,16.617,23.181,16.617,23.181z
		 M26.766,18.444c-0.113,0.955-0.372,2.078-0.733,3.167c-1.305,3.92-3.414,4.367-3.414,4.367c-0.331,0.106-0.712,0.147-1.103,0.147
		c-1.293,0-2.684-0.451-2.684-0.451s-0.739-0.268-0.775-0.751c0.801-0.072,1.281-0.037,1.905-1.072
		c2.709-4.49,2.303-7.756,2.298-8.265c-0.08-0.7-0.353-1.234-0.549-1.349c-0.152-0.069-0.141-0.501,0.028-0.501
		c0.008,0,0.015,0,0.022,0c0.219,0,1.255,0.396,2.38,0.57c1.406,0.25,2.773,1.054,2.722,2.817
		C26.852,17.472,26.82,17.986,26.766,18.444z"/>
</g>
<g>
</g>
<g>
</g>
<g>
</g>
<g>
</g>
<g>
</g>
<g>
</g>
<g>
</g>
<g>
</g>
<g>
</g>
<g>
</g>
<g>
</g>
<g>
</g>
<g>
</g>
<g>
</g>
<g>
</g>
</svg>
