<?xml version="1.0" encoding="iso-8859-1"?>
<!-- Generator: Adobe Illustrator 18.1.1, SVG Export Plug-In . SVG Version: 6.00 Build 0)  -->
<svg version="1.1" id="Capa_1" xmlns="http://www.w3.org/2000/svg" xmlns:xlink="http://www.w3.org/1999/xlink" x="0px" y="0px"
	 viewBox="0 0 26.547 26.547" style="enable-background:new 0 0 26.547 26.547;" xml:space="preserve">
<g>
	<g>
		<path style="fill:#010002;" d="M25.338,0.138H1.198C0.53,0.138,0,0.701,0,1.37v23.811c0,0.669,0.53,1.228,1.198,1.228h24.14
			c0.668,0,1.209-0.559,1.209-1.228V1.37C26.547,0.701,26.006,0.138,25.338,0.138z M25.16,24.975H1.387V1.571H25.16V24.975z"/>
		<path style="fill:#010002;" d="M3.126,20.765h19.972c0.627,0,1.139-0.509,1.139-1.137V3.45h-0.002c0-0.628-0.51-1.139-1.139-1.139
			H3.126c-0.628,0-1.137,0.511-1.137,1.139v16.178C1.989,20.256,2.498,20.765,3.126,20.765z M3.375,3.7h19.52v15.678H3.375V3.7z"/>
		<path style="fill:#010002;" d="M6.99,10.362c1.533,0,2.775-1.243,2.775-2.773c0-1.532-1.242-2.775-2.775-2.775
			c-1.532,0-2.775,1.243-2.775,2.775C4.215,9.118,5.458,10.362,6.99,10.362z M6.99,5.723c1.027,0,1.864,0.836,1.864,1.864
			c0,1.027-0.836,1.863-1.864,1.863S5.126,8.615,5.126,7.587C5.126,6.558,5.963,5.723,6.99,5.723z"/>
		<path style="fill:#010002;" d="M16.911,8.998c-0.25-0.444-0.588-0.669-0.931-0.669c-0.33,0-0.664,0.207-0.924,0.623l-2.615,4.177
			c-0.348,0.556-0.923,0.862-1.49,0.862c-0.301,0-0.599-0.086-0.861-0.264c-0.288-0.195-0.63-0.289-0.98-0.289
			c-0.581,0-1.183,0.257-1.585,0.731l-2.604,3.074c-0.649,0.766-0.359,1.395,0.643,1.395h14.907c1.002,0,1.422-0.721,0.934-1.597
			L16.911,8.998z M20.473,17.713H5.709l2.509-2.956c0.216-0.253,0.558-0.411,0.892-0.411c0.18,0,0.341,0.046,0.469,0.134
			c0.405,0.275,0.88,0.422,1.374,0.422c0.911,0,1.757-0.481,2.263-1.291l2.613-4.175c0.062-0.103,0.116-0.153,0.147-0.178
			c0.031,0.024,0.082,0.081,0.141,0.185l4.492,8.038c0.055,0.097,0.076,0.165,0.084,0.205C20.652,17.7,20.583,17.713,20.473,17.713z
			"/>
	</g>
</g>
<g>
</g>
<g>
</g>
<g>
</g>
<g>
</g>
<g>
</g>
<g>
</g>
<g>
</g>
<g>
</g>
<g>
</g>
<g>
</g>
<g>
</g>
<g>
</g>
<g>
</g>
<g>
</g>
<g>
</g>
</svg>
