<?xml version="1.0" encoding="iso-8859-1"?>
<!-- Generator: Adobe Illustrator 16.0.0, SVG Export Plug-In . SVG Version: 6.00 Build 0)  -->
<!DOCTYPE svg PUBLIC "-//W3C//DTD SVG 1.1//EN" "http://www.w3.org/Graphics/SVG/1.1/DTD/svg11.dtd">
<svg version="1.1" id="Capa_1" xmlns="http://www.w3.org/2000/svg" xmlns:xlink="http://www.w3.org/1999/xlink" x="0px" y="0px"
	 width="26.062px" height="26.062px" viewBox="0 0 26.062 26.062" style="enable-background:new 0 0 26.062 26.062;"
	 xml:space="preserve">
<g>
	<path d="M15.373,13.031l5.328-5.328c0.771-0.77,1.193-1.794,1.193-2.887c0-1.093-0.426-2.118-1.194-2.887l-0.736-0.736
		C19.194,0.424,18.17,0,17.077,0S14.96,0.424,14.19,1.193l-8.835,8.835c-0.788,0.788-1.216,1.877-1.186,3.003
		c-0.03,1.127,0.397,2.217,1.187,3.004l8.834,8.834c0.77,0.771,1.794,1.193,2.887,1.193s2.117-0.424,2.887-1.193l0.737-0.737
		c0.77-0.768,1.193-1.793,1.193-2.886c0-1.094-0.426-2.117-1.193-2.887L15.373,13.031z M19.287,22.716l-0.737,0.737
		c-0.402,0.404-0.938,0.607-1.473,0.607s-1.068-0.203-1.473-0.607L6.77,14.617c-0.436-0.434-0.628-1.018-0.598-1.588
		c-0.03-0.571,0.162-1.154,0.598-1.589l8.835-8.835C16.009,2.203,16.543,2,17.077,2s1.068,0.203,1.473,0.607l0.737,0.736
		c0.812,0.81,0.812,2.136,0,2.944l-6.742,6.743l6.742,6.741C20.098,20.582,20.098,21.908,19.287,22.716z"/>
</g>
<g>
</g>
<g>
</g>
<g>
</g>
<g>
</g>
<g>
</g>
<g>
</g>
<g>
</g>
<g>
</g>
<g>
</g>
<g>
</g>
<g>
</g>
<g>
</g>
<g>
</g>
<g>
</g>
<g>
</g>
</svg>
