<?xml version="1.0" encoding="iso-8859-1"?>
<!-- Generator: Adobe Illustrator 16.0.0, SVG Export Plug-In . SVG Version: 6.00 Build 0)  -->
<!DOCTYPE svg PUBLIC "-//W3C//DTD SVG 1.1//EN" "http://www.w3.org/Graphics/SVG/1.1/DTD/svg11.dtd">
<svg version="1.1" id="Capa_1" xmlns="http://www.w3.org/2000/svg" xmlns:xlink="http://www.w3.org/1999/xlink" x="0px" y="0px"
	 width="26.377px" height="26.377px" viewBox="0 0 26.377 26.377" style="enable-background:new 0 0 26.377 26.377;"
	 xml:space="preserve">
<g>
	<g>
		<path d="M23.963,2.561C23.963,1.146,22.814,0,21.4,0H4.976C3.56,0,2.414,1.146,2.414,2.561v2.426c0,1.415,1.146,2.562,2.562,2.562
			H21.4c1.416,0,2.562-1.146,2.562-2.562V2.561L23.963,2.561z M21.834,5.056L21.834,5.056c-0.001,0.236-0.191,0.428-0.43,0.428
			H4.971c-0.236,0-0.429-0.191-0.429-0.428V2.621c0-0.236,0.192-0.428,0.429-0.428h16.434c0.235,0,0.429,0.191,0.429,0.428V5.056z"
			/>
		<path d="M21.4,18.827H4.976c-1.416,0-2.562,1.146-2.562,2.56v2.43c0,1.414,1.146,2.561,2.562,2.561H21.4
			c1.416,0,2.562-1.146,2.562-2.561v-2.43h-0.001C23.963,19.973,22.816,18.827,21.4,18.827z M21.834,23.816L21.834,23.816
			c-0.001,0.238-0.191,0.43-0.43,0.43H4.971c-0.236,0-0.429-0.191-0.429-0.43v-2.434c0-0.234,0.192-0.429,0.429-0.429h16.434
			c0.235,0,0.429,0.19,0.429,0.429V23.816z"/>
		<path d="M21.4,9.632H4.976c-1.416,0.001-2.562,1.147-2.562,2.562v2.426c0,1.415,1.146,2.562,2.562,2.562H21.4
			c1.416,0,2.562-1.146,2.562-2.562v-2.426h-0.001C23.963,10.779,22.816,9.632,21.4,9.632z M21.834,14.623L21.834,14.623
			c-0.001,0.236-0.191,0.43-0.43,0.43H4.971c-0.236,0-0.429-0.191-0.429-0.43v-2.432c0-0.237,0.192-0.43,0.429-0.43h16.434
			c0.235,0,0.429,0.192,0.429,0.43V14.623z"/>
	</g>
</g>
<g>
</g>
<g>
</g>
<g>
</g>
<g>
</g>
<g>
</g>
<g>
</g>
<g>
</g>
<g>
</g>
<g>
</g>
<g>
</g>
<g>
</g>
<g>
</g>
<g>
</g>
<g>
</g>
<g>
</g>
</svg>
