<?xml version="1.0" encoding="iso-8859-1"?>
<!-- Generator: Adobe Illustrator 18.1.1, SVG Export Plug-In . SVG Version: 6.00 Build 0)  -->
<svg version="1.1" id="Capa_1" xmlns="http://www.w3.org/2000/svg" xmlns:xlink="http://www.w3.org/1999/xlink" x="0px" y="0px"
	 viewBox="0 0 28.739 28.739" style="enable-background:new 0 0 28.739 28.739;" xml:space="preserve">
<g>
	<g>
		<path style="fill:#010002;" d="M15.077,11.982c1.746-3.062,1.319-7.022-1.291-9.634c-3.132-3.131-8.206-3.13-11.337,0
			s-3.131,8.206,0,11.336c2.572,2.573,6.457,3.027,9.498,1.371l4.512,4.513l3.102-3.104L15.077,11.982z M11.968,11.866
			c-2.127,2.127-5.575,2.127-7.701,0c-2.127-2.125-2.127-5.573,0-7.699c2.126-2.127,5.574-2.127,7.701,0
			C14.094,6.293,14.094,9.741,11.968,11.866z"/>
		<path style="fill:#010002;" d="M28.288,23.467l-5.775-5.775c-0.471-0.472-1.241-0.472-1.711,0L17.593,20.9
			c-0.471,0.471-0.471,1.241,0,1.711l5.775,5.774c0.471,0.472,1.239,0.472,1.711,0l3.209-3.207
			C28.756,24.705,28.756,23.937,28.288,23.467z"/>
	</g>
</g>
<g>
</g>
<g>
</g>
<g>
</g>
<g>
</g>
<g>
</g>
<g>
</g>
<g>
</g>
<g>
</g>
<g>
</g>
<g>
</g>
<g>
</g>
<g>
</g>
<g>
</g>
<g>
</g>
<g>
</g>
</svg>
