<?xml version="1.0" encoding="iso-8859-1"?>
<!-- Generator: Adobe Illustrator 18.1.1, SVG Export Plug-In . SVG Version: 6.00 Build 0)  -->
<svg version="1.1" id="Capa_1" xmlns="http://www.w3.org/2000/svg" xmlns:xlink="http://www.w3.org/1999/xlink" x="0px" y="0px"
	 viewBox="0 0 28.457 28.457" style="enable-background:new 0 0 28.457 28.457;" xml:space="preserve">
<g>
	<path style="fill:#010002;" d="M26.866,6.481c0.157-0.555,0.059-1.011-0.028-1.26c-0.156-0.453-0.707-1.493-2.473-1.493H14.237
		H4.109c-1.765,0-2.321,1.04-2.478,1.493C1.544,5.469,1.44,5.931,1.596,6.485c-0.435,0.161-0.81,0.448-1.092,0.844
		C0.172,7.796,0,8.391,0,9.054v12.216c0,1.899,1.54,3.458,3.442,3.458h10.795h10.795c1.901,0,3.425-1.559,3.425-3.458V9.054
		C28.457,7.681,27.748,6.812,26.866,6.481z M4.109,5.474h10.128h10.128c0.912,0,1.074,0.472,0.357,1.039l-3.647,2.895l-6.007,4.562
		c-0.246,0.164-0.449,0.383-0.832,0.383c-0.415,0-0.509-0.156-0.832-0.382L7.407,9.417L3.751,6.513
		C3.035,5.946,3.197,5.474,4.109,5.474z M25.032,22.93H14.237H3.442c-0.913,0-1.644-0.747-1.644-1.659V9.054
		c0-0.602,0.25-0.935,0.635-0.935c0.2,0,0.428,0.088,0.677,0.277l3.202,2.434l6.599,5.02c0.536,0.44,1.317,0.414,1.326,0.414
		s0.804,0.026,1.328-0.414l6.611-5.028l3.192-2.424c0.248-0.189,0.489-0.278,0.69-0.278c0.383,0,0.651,0.333,0.651,0.935v12.215
		h0.002C26.712,22.182,25.945,22.93,25.032,22.93z"/>
</g>
<g>
</g>
<g>
</g>
<g>
</g>
<g>
</g>
<g>
</g>
<g>
</g>
<g>
</g>
<g>
</g>
<g>
</g>
<g>
</g>
<g>
</g>
<g>
</g>
<g>
</g>
<g>
</g>
<g>
</g>
</svg>
