<?xml version="1.0" encoding="iso-8859-1"?>
<!-- Generator: Adobe Illustrator 18.1.1, SVG Export Plug-In . SVG Version: 6.00 Build 0)  -->
<svg version="1.1" id="Capa_1" xmlns="http://www.w3.org/2000/svg" xmlns:xlink="http://www.w3.org/1999/xlink" x="0px" y="0px"
	 viewBox="0 0 30.713 30.713" style="enable-background:new 0 0 30.713 30.713;" xml:space="preserve">
<g>
	<g>
		<path style="fill:#010002;" d="M22.794,0H7.919C6.746,0,5.791,0.955,5.791,2.129v26.457c0,1.173,0.955,2.127,2.128,2.127h14.875
			c1.174,0,2.129-0.954,2.127-2.127V2.129C24.921,0.955,23.968,0,22.794,0z M22.921,28.586c0,0.07-0.057,0.127-0.127,0.127H7.919
			c-0.07,0-0.128-0.057-0.128-0.127V2.129C7.791,2.058,7.849,2,7.919,2h14.875c0.07,0,0.129,0.058,0.127,0.129
			C22.921,2.129,22.921,28.586,22.921,28.586z"/>
		<path style="fill:#010002;" d="M20.402,4.519h-10.09c-0.478,0-0.866,0.412-0.866,0.919V22.14c0,0.506,0.388,0.918,0.866,0.918
			h10.09c0.479,0,0.866-0.412,0.866-0.918V5.438C21.268,4.931,20.88,4.519,20.402,4.519z M20.184,21.875h-9.655V5.701h9.655V21.875z
			"/>
	</g>
</g>
<g>
</g>
<g>
</g>
<g>
</g>
<g>
</g>
<g>
</g>
<g>
</g>
<g>
</g>
<g>
</g>
<g>
</g>
<g>
</g>
<g>
</g>
<g>
</g>
<g>
</g>
<g>
</g>
<g>
</g>
</svg>
