<?xml version="1.0" encoding="iso-8859-1"?>
<!-- Generator: Adobe Illustrator 16.0.0, SVG Export Plug-In . SVG Version: 6.00 Build 0)  -->
<!DOCTYPE svg PUBLIC "-//W3C//DTD SVG 1.1//EN" "http://www.w3.org/Graphics/SVG/1.1/DTD/svg11.dtd">
<svg version="1.1" id="Capa_1" xmlns="http://www.w3.org/2000/svg" xmlns:xlink="http://www.w3.org/1999/xlink" x="0px" y="0px"
	 width="32.65px" height="32.65px" viewBox="0 0 32.65 32.65" style="enable-background:new 0 0 32.65 32.65;" xml:space="preserve"
	>
<g>
	<g>
		<path d="M30.867,12.949c-1.811-1.473-7.3-6.124-14.486-6.124c-0.013,0-0.025,0-0.038,0h-0.018c-0.014,0-0.043,0-0.057,0
			c-7.187,0-12.675,4.651-14.479,6.118C0.335,14.114,0.016,15.354,0,16.17c-0.021,1.136,0.431,2.147,1.343,2.989
			c2.508,2.426,7.816,6.573,14.861,6.641c0.034,0.002,0.069,0.025,0.104,0.025c0.032,0,0.064,0,0.097,0
			c7.062,0,12.389-4.205,14.938-6.668c0.875-0.807,1.327-1.842,1.306-2.979C32.628,15.024,31.995,13.855,30.867,12.949z
			 M29.935,17.7c-2.256,2.182-7.624,6.059-13.624,6.087c-6-0.028-11.354-3.905-13.609-6.087C2.281,17.314,1.989,16.853,2,16.229
			c0.016-0.884,0.92-1.627,1.052-1.734c2.76-2.246,7.412-5.67,13.256-5.67c0.006,0,0.012,0,0.019,0c0.005,0,0.011,0,0.018,0
			c5.846,0,10.493,3.424,13.254,5.67c0.132,0.107,1.026,0.825,1.042,1.71C30.65,16.829,30.354,17.314,29.935,17.7z"/>
		<path d="M16.327,10.598c-3.162,0.02-5.72,2.589-5.72,5.756c0,3.166,2.558,5.734,5.72,5.756c3.17-0.021,5.718-2.59,5.718-5.756
			C22.044,13.187,19.497,10.618,16.327,10.598z M16.311,19.864c-1.535-0.045-3.35-1.564-3.35-3.432c0-1.87,1.814-3.61,3.35-3.657
			c1.535,0.047,3.352,1.676,3.352,3.546C19.661,18.188,17.846,19.819,16.311,19.864z"/>
	</g>
</g>
<g>
</g>
<g>
</g>
<g>
</g>
<g>
</g>
<g>
</g>
<g>
</g>
<g>
</g>
<g>
</g>
<g>
</g>
<g>
</g>
<g>
</g>
<g>
</g>
<g>
</g>
<g>
</g>
<g>
</g>
</svg>
