<?xml version="1.0" encoding="iso-8859-1"?>
<!-- Generator: Adobe Illustrator 18.1.1, SVG Export Plug-In . SVG Version: 6.00 Build 0)  -->
<svg version="1.1" id="Capa_1" xmlns="http://www.w3.org/2000/svg" xmlns:xlink="http://www.w3.org/1999/xlink" x="0px" y="0px"
	 viewBox="0 0 26.062 26.062" style="enable-background:new 0 0 26.062 26.062;" xml:space="preserve">
<g>
	<path style="fill:#010002;" d="M20.707,10.028l-8.835-8.835C11.103,0.424,10.078,0,8.985,0C7.893,0,6.868,0.424,6.099,1.193
		L5.361,1.931C4.592,2.698,4.168,3.724,4.168,4.816s0.424,2.117,1.193,2.887l5.328,5.328l-5.328,5.328
		c-0.769,0.77-1.193,1.794-1.193,2.887s0.424,2.118,1.194,2.887l0.736,0.736c0.77,0.771,1.794,1.193,2.887,1.193
		s2.117-0.424,2.887-1.193l8.835-8.836c0.787-0.785,1.216-1.875,1.186-3.002C21.923,11.905,21.496,10.816,20.707,10.028z
		 M19.293,14.619l-8.835,8.836c-0.403,0.404-0.938,0.607-1.473,0.607s-1.068-0.203-1.474-0.607l-0.736-0.737
		c-0.811-0.809-0.811-2.135,0-2.943l6.742-6.742L6.775,6.289c-0.811-0.81-0.811-2.136,0-2.943l0.736-0.737
		C7.917,2.203,8.451,2,8.985,2c0.535,0,1.069,0.203,1.473,0.607l8.835,8.835c0.436,0.435,0.628,1.018,0.598,1.589
		C19.921,13.602,19.728,14.185,19.293,14.619z"/>
</g>
<g>
</g>
<g>
</g>
<g>
</g>
<g>
</g>
<g>
</g>
<g>
</g>
<g>
</g>
<g>
</g>
<g>
</g>
<g>
</g>
<g>
</g>
<g>
</g>
<g>
</g>
<g>
</g>
<g>
</g>
</svg>
