<?xml version="1.0" encoding="iso-8859-1"?>
<!-- Generator: Adobe Illustrator 18.1.1, SVG Export Plug-In . SVG Version: 6.00 Build 0)  -->
<svg version="1.1" id="Capa_1" xmlns="http://www.w3.org/2000/svg" xmlns:xlink="http://www.w3.org/1999/xlink" x="0px" y="0px"
	 viewBox="0 0 27.904 27.904" style="enable-background:new 0 0 27.904 27.904;" xml:space="preserve">
<g>
	<g>
		<path style="fill:#010002;" d="M27.468,6.232c-0.592-0.835-1.607-1.13-2.297-1.13L10.378,5.077l-0.123-0.462
			c-0.417-1.73-2.108-1.719-2.664-1.719H3.093c-0.053,0-0.115-0.013-0.182-0.015c-0.109-0.002-0.227-0.01-0.348-0.01
			c-0.443,0-0.781,0.032-1.078,0.112C0.396,3.275,0,4.137,0,4.788v1.718C0,6.82,0.124,8.389,2.406,8.389
			c0.157,0,0.32-0.026,0.467-0.032C2.959,8.354,3.043,8.33,3.108,8.33h2.564l2.439,10.041c-0.389,0.619-0.579,1.301-0.579,2.041
			c0,2.49,1.852,4.444,4.216,4.444c1.461,0,2.799-0.586,3.564-1.565h3.754c0.677,0.979,1.897,1.742,3.611,1.742
			c1.136,0,2.25-0.496,3.057-1.363c0.822-0.879,1.245-2.062,1.163-3.242c-0.103-1.475-0.817-2.622-1.953-3.271l2.814-8.616
			C28.028,7.767,27.921,6.872,27.468,6.232z M26.266,8.052l-2.833,8.661c-0.142,0.386-0.299,1.057-1.097,1.057H11.751l0.042,0.242
			c1.002,0.005,1.877,0.549,2.357,1.35l6.028,0.047c0.479-0.828,1.372-1.386,2.397-1.386c0.546,0,1.055,0.159,1.482,0.433
			c0.005,0.003,0.009,0.007,0.014,0.01c-0.005-0.003-0.008-0.007-0.012-0.01c0.769,0.388,1.19,1.107,1.267,2.039
			c-0.002-0.021-0.011-0.039-0.014-0.059c0.003,0.021,0.01,0.039,0.012,0.061c0.01,0.097,0.016,0.193,0.016,0.293
			c0,1.527-1.238,2.748-2.765,2.748c-1.2,0-2.221-0.779-2.604-1.849h-5.589c-0.043,0.267-0.146,0.419-0.298,0.606
			c-0.495,0.748-1.343,1.25-2.309,1.25c-1.526,0-2.765-1.232-2.765-2.762c0-0.302,0.049-0.588,0.139-0.861
			c0.096-0.438,0.32-0.805,0.661-1.166L6.908,6.814h-3.8c-0.182,0-0.434,0.011-0.688,0.011c-0.42,0-0.817-0.057-0.817-0.319V4.788
			c0-0.306,0.502-0.369,0.967-0.369c0.199,0,0.384-0.009,0.522-0.009h4.499c0.688,0,1.028,0.093,1.144,0.571l0.428,1.655
			L25.17,6.669c0.118,0,0.722,0.054,1.015,0.469C26.301,7.3,26.408,7.643,26.266,8.052z"/>
		<path style="fill:#010002;" d="M25.314,20.436c-0.089-0.896-0.5-1.59-1.241-1.971C24.741,18.896,25.208,19.61,25.314,20.436z"/>
		<path style="fill:#010002;" d="M11.015,20.538c-0.026,0.078-0.041,0.164-0.041,0.252c0,0.443,0.361,0.806,0.806,0.806
			c0.281,0,0.528-0.146,0.673-0.362c0.084-0.127,0.133-0.279,0.133-0.443c0-0.15-0.042-0.293-0.114-0.414
			c-0.14-0.232-0.395-0.391-0.687-0.392c-0.001,0-0.002,0-0.005,0C11.423,19.983,11.121,20.216,11.015,20.538z"/>
		<path style="fill:#010002;" d="M22.577,21.684c0.494,0,0.895-0.4,0.895-0.895c0-0.033-0.002-0.064-0.005-0.097
			c-0.029-0.276-0.186-0.517-0.41-0.659c-0.139-0.088-0.303-0.14-0.479-0.14c-0.332,0-0.621,0.181-0.775,0.448
			c-0.076,0.132-0.119,0.283-0.119,0.445c0,0.106,0.02,0.209,0.052,0.304C21.859,21.437,22.19,21.684,22.577,21.684z"/>
	</g>
</g>
<g>
</g>
<g>
</g>
<g>
</g>
<g>
</g>
<g>
</g>
<g>
</g>
<g>
</g>
<g>
</g>
<g>
</g>
<g>
</g>
<g>
</g>
<g>
</g>
<g>
</g>
<g>
</g>
<g>
</g>
</svg>
