<?xml version="1.0" encoding="iso-8859-1"?>
<!-- Generator: Adobe Illustrator 18.1.1, SVG Export Plug-In . SVG Version: 6.00 Build 0)  -->
<svg version="1.1" id="Capa_1" xmlns="http://www.w3.org/2000/svg" xmlns:xlink="http://www.w3.org/1999/xlink" x="0px" y="0px"
	 viewBox="0 0 32.462 32.462" style="enable-background:new 0 0 32.462 32.462;" xml:space="preserve">
<g>
	<g>
		<path style="fill:#010002;" d="M30.362,1.425H2.078C0.932,1.425,0,2.385,0,3.566v22.483c0,1.18,0.932,2.139,2.078,2.137h7.988
			c0.039,1.579,1.325,2.851,2.9,2.851h6.691c1.584,0,2.879-1.271,2.918-2.849h7.787c1.158,0,2.1-0.959,2.1-2.139V3.566
			C32.461,2.385,31.52,1.425,30.362,1.425z M30.461,26.049c0,0.074-0.055,0.139-0.1,0.139h-9.787v1.926
			c0,0.501-0.421,0.924-0.918,0.924h-6.691c-0.497,0-0.901-0.414-0.901-0.924v-1.926H2.078C2.047,26.188,2,26.127,2,26.049V3.566
			c0-0.08,0.047-0.14,0.078-0.14h28.284c0.039,0,0.1,0.063,0.1,0.141L30.461,26.049L30.461,26.049z"/>
		<path style="fill:#010002;" d="M16.385,21.825c-1.298,0-2.354,1.057-2.354,2.354s1.056,2.354,2.354,2.354
			c1.299,0,2.356-1.057,2.356-2.354S17.684,21.825,16.385,21.825z M16.383,25.507c-0.731,0-1.326-0.598-1.326-1.33
			c0-0.731,0.595-1.327,1.326-1.327c0.735,0,1.333,0.596,1.333,1.327C17.715,24.924,17.129,25.507,16.383,25.507z"/>
		<path style="fill:#010002;" d="M3.397,20.353h25.667V4.717H3.397V20.353z M4.705,5.857h23.051v13.356H4.705V5.857z"/>
	</g>
</g>
<g>
</g>
<g>
</g>
<g>
</g>
<g>
</g>
<g>
</g>
<g>
</g>
<g>
</g>
<g>
</g>
<g>
</g>
<g>
</g>
<g>
</g>
<g>
</g>
<g>
</g>
<g>
</g>
<g>
</g>
</svg>
